<?xml version="1.0" encoding="UTF-8"?>
<svg width="700pt" height="700pt" version="1.1" viewBox="0 0 700 700" xmlns="http://www.w3.org/2000/svg">
 <path d="m423.71 135.37 16.344-65.367h-163.42zm-190.38-59.082v172.22l172.22-95.676zm0 385.86 172.02-57.34-172.02-114.68zm60.227 4.5195h145.25l-14.523-43.578zm126.44-80.133v-215.04l-175.94 97.742zm23.332-209.96v203.59l111.05-111.05zm14.344 272.9 63.312-113.96-75.973 75.973zm1.0703-358.02-13.984 55.934 85.59 71.328zm-248.75 341.88v-153.33h-85.184zm-85.184-176.66h85.184v-153.33zm328.68-210c4.2148 0 8.1016 2.2734 10.168 5.9453l118.16 210c1.9844 3.5312 1.9961 7.8438 0.027343 11.387l-116.66 210c-2.0586 3.7031-5.9609 6-10.199 6h-233.33c-4.2383 0-8.1406-2.2969-10.199-6l-116.67-210c-1.957-3.5234-1.957-7.8086 0-11.332l116.67-210c2.0586-3.7031 5.9609-6 10.199-6z"/>
</svg>
