<?xml version="1.0" encoding="UTF-8"?>
<svg width="700pt" height="700pt" version="1.1" viewBox="0 0 700 700" xmlns="http://www.w3.org/2000/svg" xmlns:xlink="http://www.w3.org/1999/xlink">
 <defs>
  <symbol id="v" overflow="visible">
   <path d="m18.766-1.125c-0.96875 0.5-1.9805 0.875-3.0312 1.125-1.043 0.25781-2.1367 0.39062-3.2812 0.39062-3.3984 0-6.0898-0.94531-8.0781-2.8438-1.9922-1.9062-2.9844-4.4844-2.9844-7.7344 0-3.2578 0.99219-5.8359 2.9844-7.7344 1.9883-1.9062 4.6797-2.8594 8.0781-2.8594 1.1445 0 2.2383 0.13281 3.2812 0.39062 1.0508 0.25 2.0625 0.625 3.0312 1.125v4.2188c-0.98047-0.65625-1.9453-1.1406-2.8906-1.4531-0.94922-0.3125-1.9492-0.46875-3-0.46875-1.875 0-3.3516 0.60547-4.4219 1.8125-1.0742 1.1992-1.6094 2.8555-1.6094 4.9688 0 2.1055 0.53516 3.7617 1.6094 4.9688 1.0703 1.1992 2.5469 1.7969 4.4219 1.7969 1.0508 0 2.0508-0.14844 3-0.45312 0.94531-0.3125 1.9102-0.80078 2.8906-1.4688z"/>
  </symbol>
  <symbol id="b" overflow="visible">
   <path d="m13.734-11.141c-0.4375-0.19531-0.87109-0.34375-1.2969-0.4375-0.41797-0.10156-0.83984-0.15625-1.2656-0.15625-1.2617 0-2.2305 0.40625-2.9062 1.2188-0.67969 0.80469-1.0156 1.9531-1.0156 3.4531v7.0625h-4.8906v-15.312h4.8906v2.5156c0.625-1 1.3438-1.7266 2.1562-2.1875 0.82031-0.46875 1.8008-0.70312 2.9375-0.70312 0.16406 0 0.34375 0.011719 0.53125 0.03125 0.19531 0.011719 0.47656 0.039062 0.84375 0.078125z"/>
  </symbol>
  <symbol id="a" overflow="visible">
   <path d="m17.641-7.7031v1.4062h-11.453c0.125 1.1484 0.53906 2.0078 1.25 2.5781 0.70703 0.57422 1.7031 0.85938 2.9844 0.85938 1.0312 0 2.082-0.14844 3.1562-0.45312 1.082-0.3125 2.1914-0.77344 3.3281-1.3906v3.7656c-1.1562 0.4375-2.3125 0.76562-3.4688 0.98438-1.1562 0.22656-2.3125 0.34375-3.4688 0.34375-2.7734 0-4.9297-0.70312-6.4688-2.1094-1.5312-1.4062-2.2969-3.3789-2.2969-5.9219 0-2.5 0.75391-4.4609 2.2656-5.8906 1.5078-1.4375 3.582-2.1562 6.2188-2.1562 2.4062 0 4.332 0.73047 5.7812 2.1875 1.4453 1.4492 2.1719 3.3828 2.1719 5.7969zm-5.0312-1.625c0-0.92578-0.27344-1.6719-0.8125-2.2344-0.54297-0.57031-1.25-0.85938-2.125-0.85938-0.94922 0-1.7188 0.26562-2.3125 0.79688s-0.96484 1.2969-1.1094 2.2969z"/>
  </symbol>
  <symbol id="f" overflow="visible">
   <path d="m9.2188-6.8906c-1.0234 0-1.793 0.17188-2.3125 0.51562-0.51172 0.34375-0.76562 0.85547-0.76562 1.5312 0 0.625 0.20703 1.1172 0.625 1.4688 0.41406 0.34375 0.98828 0.51562 1.7188 0.51562 0.92578 0 1.7031-0.32812 2.3281-0.98438 0.63281-0.66406 0.95312-1.4922 0.95312-2.4844v-0.5625zm7.4688-1.8438v8.7344h-4.9219v-2.2656c-0.65625 0.92969-1.3984 1.6055-2.2188 2.0312-0.82422 0.41406-1.8242 0.625-3 0.625-1.5859 0-2.8711-0.45703-3.8594-1.375-0.99219-0.92578-1.4844-2.1289-1.4844-3.6094 0-1.7891 0.61328-3.1016 1.8438-3.9375 1.2383-0.84375 3.1797-1.2656 5.8281-1.2656h2.8906v-0.39062c0-0.76953-0.30859-1.332-0.92188-1.6875-0.61719-0.36328-1.5703-0.54688-2.8594-0.54688-1.0547 0-2.0312 0.10547-2.9375 0.3125-0.89844 0.21094-1.7305 0.52344-2.5 0.9375v-3.7344c1.0391-0.25 2.0859-0.44141 3.1406-0.57812 1.0625-0.13281 2.125-0.20312 3.1875-0.20312 2.7578 0 4.75 0.54688 5.9688 1.6406 1.2266 1.0859 1.8438 2.8555 1.8438 5.3125z"/>
  </symbol>
  <symbol id="c" overflow="visible">
   <path d="m7.7031-19.656v4.3438h5.0469v3.5h-5.0469v6.5c0 0.71094 0.14062 1.1875 0.42188 1.4375s0.83594 0.375 1.6719 0.375h2.5156v3.5h-4.1875c-1.9375 0-3.3125-0.39844-4.125-1.2031-0.80469-0.8125-1.2031-2.1797-1.2031-4.1094v-6.5h-2.4219v-3.5h2.4219v-4.3438z"/>
  </symbol>
  <symbol id="k" overflow="visible">
   <path d="m12.766-13.078v-8.2031h4.9219v21.281h-4.9219v-2.2188c-0.66797 0.90625-1.4062 1.5703-2.2188 1.9844s-1.7578 0.625-2.8281 0.625c-1.8867 0-3.4336-0.75-4.6406-2.25-1.2109-1.5-1.8125-3.4258-1.8125-5.7812 0-2.3633 0.60156-4.2969 1.8125-5.7969 1.207-1.5 2.7539-2.25 4.6406-2.25 1.0625 0 2 0.21484 2.8125 0.64062 0.82031 0.42969 1.5664 1.0859 2.2344 1.9688zm-3.2188 9.9219c1.0391 0 1.8359-0.37891 2.3906-1.1406 0.55078-0.76953 0.82812-1.8828 0.82812-3.3438 0-1.457-0.27734-2.5664-0.82812-3.3281-0.55469-0.76953-1.3516-1.1562-2.3906-1.1562-1.043 0-1.8398 0.38672-2.3906 1.1562-0.55469 0.76172-0.82812 1.8711-0.82812 3.3281 0 1.4609 0.27344 2.5742 0.82812 3.3438 0.55078 0.76172 1.3477 1.1406 2.3906 1.1406z"/>
  </symbol>
  <symbol id="e" overflow="visible">
   <path d="m10.5-3.1562c1.0508 0 1.8516-0.37891 2.4062-1.1406 0.55078-0.76953 0.82812-1.8828 0.82812-3.3438 0-1.457-0.27734-2.5664-0.82812-3.3281-0.55469-0.76953-1.3555-1.1562-2.4062-1.1562-1.0547 0-1.8594 0.38672-2.4219 1.1562-0.55469 0.77344-0.82812 1.8828-0.82812 3.3281 0 1.4492 0.27344 2.5586 0.82812 3.3281 0.5625 0.77344 1.3672 1.1562 2.4219 1.1562zm-3.25-9.9219c0.67578-0.88281 1.4219-1.5391 2.2344-1.9688 0.82031-0.42578 1.7656-0.64062 2.8281-0.64062 1.8945 0 3.4453 0.75 4.6562 2.25 1.207 1.5 1.8125 3.4336 1.8125 5.7969 0 2.3555-0.60547 4.2812-1.8125 5.7812-1.2109 1.5-2.7617 2.25-4.6562 2.25-1.0625 0-2.0078-0.21094-2.8281-0.625-0.8125-0.42578-1.5586-1.0859-2.2344-1.9844v2.2188h-4.8906v-21.281h4.8906z"/>
  </symbol>
  <symbol id="j" overflow="visible">
   <path d="m0.34375-15.312h4.8906l4.125 10.391 3.5-10.391h4.8906l-6.4375 16.766c-0.64844 1.6953-1.4023 2.8828-2.2656 3.5625-0.86719 0.6875-2 1.0312-3.4062 1.0312h-2.8438v-3.2188h1.5312c0.83203 0 1.4375-0.13672 1.8125-0.40625 0.38281-0.26172 0.67969-0.73047 0.89062-1.4062l0.14062-0.42188z"/>
  </symbol>
  <symbol id="i" overflow="visible">
   <path d="m2.5781-20.406h5.25v16.422h9.25v3.9844h-14.5z"/>
  </symbol>
  <symbol id="h" overflow="visible">
   <path d="m14.312-14.828v3.7188c-1.043-0.4375-2.0547-0.76562-3.0312-0.98438-0.98047-0.21875-1.9023-0.32812-2.7656-0.32812-0.92969 0-1.6211 0.11719-2.0781 0.34375-0.44922 0.23047-0.67188 0.58984-0.67188 1.0781 0 0.38672 0.17188 0.68359 0.51562 0.89062 0.34375 0.21094 0.95703 0.36719 1.8438 0.46875l0.85938 0.125c2.5078 0.32422 4.1953 0.85156 5.0625 1.5781 0.86328 0.73047 1.2969 1.8711 1.2969 3.4219 0 1.6367-0.60547 2.8672-1.8125 3.6875-1.1992 0.8125-2.9922 1.2188-5.375 1.2188-1.0234 0-2.0742-0.078125-3.1562-0.23438-1.0742-0.15625-2.1797-0.39453-3.3125-0.71875v-3.7188c0.96875 0.48047 1.9609 0.83984 2.9844 1.0781 1.0312 0.23047 2.0781 0.34375 3.1406 0.34375 0.95703 0 1.6758-0.12891 2.1562-0.39062 0.47656-0.26953 0.71875-0.66406 0.71875-1.1875 0-0.4375-0.16797-0.75781-0.5-0.96875-0.33594-0.21875-0.99609-0.38281-1.9844-0.5l-0.85938-0.10938c-2.1797-0.26953-3.7031-0.77344-4.5781-1.5156-0.875-0.73828-1.3125-1.8594-1.3125-3.3594 0-1.625 0.55078-2.8281 1.6562-3.6094 1.1133-0.78906 2.8203-1.1875 5.125-1.1875 0.89453 0 1.8359 0.074219 2.8281 0.21875 1 0.13672 2.082 0.35156 3.25 0.64062z"/>
  </symbol>
  <symbol id="u" overflow="visible">
   <path d="m2.5781-20.406h6.6875l4.6562 10.922 4.6719-10.922h6.6875v20.406h-4.9844v-14.938l-4.7031 11.016h-3.3281l-4.7031-11.016v14.938h-4.9844z"/>
  </symbol>
  <symbol id="t" overflow="visible">
   <path d="m2.3594-15.312h4.8906v15.312h-4.8906zm0-5.9688h4.8906v4h-4.8906z"/>
  </symbol>
  <symbol id="d" overflow="visible">
   <path d="m9.6406-12.188c-1.0859 0-1.9141 0.39062-2.4844 1.1719-0.57422 0.78125-0.85938 1.9062-0.85938 3.375s0.28516 2.5938 0.85938 3.375c0.57031 0.77344 1.3984 1.1562 2.4844 1.1562 1.0625 0 1.875-0.38281 2.4375-1.1562 0.57031-0.78125 0.85938-1.9062 0.85938-3.375s-0.28906-2.5938-0.85938-3.375c-0.5625-0.78125-1.375-1.1719-2.4375-1.1719zm0-3.5c2.6328 0 4.6914 0.71484 6.1719 2.1406 1.4766 1.418 2.2188 3.3867 2.2188 5.9062 0 2.5117-0.74219 4.4805-2.2188 5.9062-1.4805 1.418-3.5391 2.125-6.1719 2.125-2.6484 0-4.7148-0.70703-6.2031-2.125-1.4922-1.4258-2.2344-3.3945-2.2344-5.9062 0-2.5195 0.74219-4.4883 2.2344-5.9062 1.4883-1.4258 3.5547-2.1406 6.2031-2.1406z"/>
  </symbol>
  <symbol id="g" overflow="visible">
   <path d="m17.75-9.3281v9.3281h-4.9219v-7.1406c0-1.3203-0.03125-2.2344-0.09375-2.7344s-0.16797-0.86719-0.3125-1.1094c-0.1875-0.3125-0.44922-0.55469-0.78125-0.73438-0.32422-0.17578-0.69531-0.26562-1.1094-0.26562-1.0234 0-1.8242 0.39844-2.4062 1.1875-0.58594 0.78125-0.875 1.8711-0.875 3.2656v7.5312h-4.8906v-15.312h4.8906v2.2344c0.73828-0.88281 1.5195-1.5391 2.3438-1.9688 0.83203-0.42578 1.75-0.64062 2.75-0.64062 1.7695 0 3.1133 0.54688 4.0312 1.6406 0.91406 1.0859 1.375 2.6562 1.375 4.7188z"/>
  </symbol>
  <symbol id="s" overflow="visible">
   <path d="m12.422-21.281v3.2188h-2.7031c-0.6875 0-1.1719 0.125-1.4531 0.375-0.27344 0.25-0.40625 0.6875-0.40625 1.3125v1.0625h4.1875v3.5h-4.1875v11.812h-4.8906v-11.812h-2.4375v-3.5h2.4375v-1.0625c0-1.6641 0.46094-2.8984 1.3906-3.7031 0.92578-0.80078 2.3672-1.2031 4.3281-1.2031z"/>
  </symbol>
  <symbol id="r" overflow="visible">
   <path d="m16.547-12.766c0.61328-0.94531 1.3477-1.6719 2.2031-2.1719 0.85156-0.5 1.7891-0.75 2.8125-0.75 1.7578 0 3.0977 0.54688 4.0156 1.6406 0.92578 1.0859 1.3906 2.6562 1.3906 4.7188v9.3281h-4.9219v-7.9844-0.35938c0.007813-0.13281 0.015625-0.32031 0.015625-0.5625 0-1.082-0.16406-1.8633-0.48438-2.3438-0.3125-0.48828-0.82422-0.73438-1.5312-0.73438-0.92969 0-1.6484 0.38672-2.1562 1.1562-0.51172 0.76172-0.77344 1.8672-0.78125 3.3125v7.5156h-4.9219v-7.9844c0-1.6953-0.14844-2.7852-0.4375-3.2656-0.29297-0.48828-0.8125-0.73438-1.5625-0.73438-0.9375 0-1.6641 0.38672-2.1719 1.1562-0.51172 0.76172-0.76562 1.8594-0.76562 3.2969v7.5312h-4.9219v-15.312h4.9219v2.2344c0.60156-0.86328 1.2891-1.5156 2.0625-1.9531 0.78125-0.4375 1.6406-0.65625 2.5781-0.65625 1.0625 0 2 0.25781 2.8125 0.76562 0.8125 0.51172 1.4258 1.2305 1.8438 2.1562z"/>
  </symbol>
  <symbol id="q" overflow="visible">
   <path d="m17.75-9.3281v9.3281h-4.9219v-7.1094c0-1.3438-0.03125-2.2656-0.09375-2.7656s-0.16797-0.86719-0.3125-1.1094c-0.1875-0.3125-0.44922-0.55469-0.78125-0.73438-0.32422-0.17578-0.69531-0.26562-1.1094-0.26562-1.0234 0-1.8242 0.39844-2.4062 1.1875-0.58594 0.78125-0.875 1.8711-0.875 3.2656v7.5312h-4.8906v-21.281h4.8906v8.2031c0.73828-0.88281 1.5195-1.5391 2.3438-1.9688 0.83203-0.42578 1.75-0.64062 2.75-0.64062 1.7695 0 3.1133 0.54688 4.0312 1.6406 0.91406 1.0859 1.375 2.6562 1.375 4.7188z"/>
  </symbol>
  <symbol id="p" overflow="visible">
   <path d="m2.5781-20.406h5.875l7.4219 14v-14h4.9844v20.406h-5.875l-7.4219-14v14h-4.9844z"/>
  </symbol>
  <symbol id="o" overflow="visible">
   <path d="m2.1875-5.9688v-9.3438h4.9219v1.5312c0 0.83594-0.007813 1.875-0.015625 3.125-0.011719 1.25-0.015625 2.0859-0.015625 2.5 0 1.2422 0.03125 2.1328 0.09375 2.6719 0.070313 0.54297 0.17969 0.93359 0.32812 1.1719 0.20703 0.32422 0.47266 0.57422 0.79688 0.75 0.32031 0.16797 0.69141 0.25 1.1094 0.25 1.0195 0 1.8203-0.39062 2.4062-1.1719 0.58203-0.78125 0.875-1.8672 0.875-3.2656v-7.5625h4.8906v15.312h-4.8906v-2.2188c-0.74219 0.89844-1.5234 1.5586-2.3438 1.9844-0.82422 0.41406-1.7344 0.625-2.7344 0.625-1.7617 0-3.1055-0.53906-4.0312-1.625-0.92969-1.082-1.3906-2.6602-1.3906-4.7344z"/>
  </symbol>
  <symbol id="n" overflow="visible">
   <path d="m2.5781-20.406h8.7344c2.5938 0 4.582 0.57812 5.9688 1.7344 1.3945 1.1484 2.0938 2.7891 2.0938 4.9219 0 2.1367-0.69922 3.7812-2.0938 4.9375-1.3867 1.1562-3.375 1.7344-5.9688 1.7344h-3.4844v7.0781h-5.25zm5.25 3.8125v5.7031h2.9219c1.0195 0 1.8047-0.25 2.3594-0.75 0.5625-0.5 0.84375-1.2031 0.84375-2.1094 0-0.91406-0.28125-1.6172-0.84375-2.1094-0.55469-0.48828-1.3398-0.73438-2.3594-0.73438z"/>
  </symbol>
  <symbol id="m" overflow="visible">
   <path d="m2.3594-15.312h4.8906v15.031c0 2.0508-0.49609 3.6172-1.4844 4.7031-0.98047 1.082-2.4062 1.625-4.2812 1.625h-2.4219v-3.2188h0.85938c0.92578 0 1.5625-0.21094 1.9062-0.625 0.35156-0.41797 0.53125-1.2461 0.53125-2.4844zm0-5.9688h4.8906v4h-4.8906z"/>
  </symbol>
  <symbol id="l" overflow="visible">
   <path d="m14.719-14.828v3.9844c-0.65625-0.45703-1.3242-0.79688-2-1.0156-0.66797-0.21875-1.3594-0.32812-2.0781-0.32812-1.3672 0-2.4336 0.40234-3.2031 1.2031-0.76172 0.79297-1.1406 1.9062-1.1406 3.3438 0 1.4297 0.37891 2.543 1.1406 3.3438 0.76953 0.79297 1.8359 1.1875 3.2031 1.1875 0.75781 0 1.4844-0.10938 2.1719-0.32812 0.6875-0.22656 1.3203-0.56641 1.9062-1.0156v4c-0.76172 0.28125-1.5391 0.48828-2.3281 0.625-0.78125 0.14453-1.5742 0.21875-2.375 0.21875-2.7617 0-4.9219-0.70703-6.4844-2.125-1.5547-1.4141-2.3281-3.3828-2.3281-5.9062 0-2.5312 0.77344-4.5039 2.3281-5.9219 1.5625-1.4141 3.7227-2.125 6.4844-2.125 0.80078 0 1.5938 0.074219 2.375 0.21875 0.78125 0.13672 1.5547 0.35156 2.3281 0.64062z"/>
  </symbol>
 </defs>
 <g>
  <path d="m257.6 462c0 3.0938-2.5078 5.6016-5.6016 5.6016s-5.6016-2.5078-5.6016-5.6016 2.5078-5.6016 5.6016-5.6016 5.6016 2.5078 5.6016 5.6016"/>
  <path d="m229.6 434c0 3.0938-2.5078 5.6016-5.6016 5.6016s-5.6016-2.5078-5.6016-5.6016 2.5078-5.6016 5.6016-5.6016 5.6016 2.5078 5.6016 5.6016"/>
  <path d="m234.02 451.98c1.8828 1.8945 4.8398 2.1992 7.0664 0.72656 2.2266-1.4727 3.1055-4.3164 2.0938-6.7891-1.0078-2.4727-3.625-3.8867-6.2461-3.3789-2.6211 0.50781-4.5234 2.793-4.5391 5.4648-0.007813 1.4883 0.57812 2.918 1.625 3.9766z"/>
  <path d="m201.6 406c0 3.0938-2.5078 5.6016-5.6016 5.6016s-5.6016-2.5078-5.6016-5.6016 2.5078-5.6016 5.6016-5.6016 5.6016 2.5078 5.6016 5.6016"/>
  <path d="m182 414.4c-2.2656 0-4.3086 1.3672-5.1719 3.457-0.86719 2.0938-0.39062 4.5039 1.2109 6.1055 1.6016 1.6016 4.0117 2.0781 6.1055 1.2109 2.0898-0.86328 3.457-2.9062 3.457-5.1719 0-1.4844-0.58984-2.9102-1.6406-3.9609-1.0508-1.0508-2.4766-1.6406-3.9609-1.6406z"/>
  <path d="m206.02 423.98c1.8828 1.8945 4.8398 2.1992 7.0664 0.72656 2.2266-1.4727 3.1055-4.3164 2.0938-6.7891-1.0078-2.4727-3.625-3.8867-6.2461-3.3789-2.6211 0.50781-4.5234 2.793-4.5391 5.4648-0.007813 1.4883 0.57812 2.918 1.625 3.9766z"/>
  <path d="m173.6 406c0 3.0938-2.5078 5.6016-5.6016 5.6016s-5.6016-2.5078-5.6016-5.6016 2.5078-5.6016 5.6016-5.6016 5.6016 2.5078 5.6016 5.6016"/>
  <path d="m182 397.6c2.6719-0.015624 4.957-1.918 5.4648-4.5391 0.50781-2.6211-0.90625-5.2383-3.3789-6.2461-2.4727-1.0117-5.3164-0.13281-6.7891 2.0938-1.4727 2.2266-1.168 5.1836 0.72656 7.0664 1.0586 1.0469 2.4883 1.6328 3.9766 1.625z"/>
  <path d="m313.6 126c0 3.0938-2.5078 5.6016-5.6016 5.6016s-5.6016-2.5078-5.6016-5.6016 2.5078-5.6016 5.6016-5.6016 5.6016 2.5078 5.6016 5.6016"/>
  <path d="m294 162.4c-2.2656 0-4.3086 1.3672-5.1719 3.457-0.86719 2.0938-0.39062 4.5039 1.2109 6.1055 1.6016 1.6016 4.0117 2.0781 6.1055 1.2109 2.0898-0.86328 3.457-2.9062 3.457-5.1719 0-1.4844-0.58984-2.9102-1.6406-3.9609-1.0508-1.0508-2.4766-1.6406-3.9609-1.6406z"/>
  <path d="m285.6 126c0 3.0938-2.5078 5.6016-5.6016 5.6016s-5.6016-2.5078-5.6016-5.6016 2.5078-5.6016 5.6016-5.6016 5.6016 2.5078 5.6016 5.6016"/>
  <path d="m285.6 154c0 3.0938-2.5078 5.6016-5.6016 5.6016s-5.6016-2.5078-5.6016-5.6016 2.5078-5.6016 5.6016-5.6016 5.6016 2.5078 5.6016 5.6016"/>
  <path d="m294 145.6c2.6719-0.015624 4.957-1.918 5.4648-4.5391 0.50781-2.6211-0.90625-5.2383-3.3789-6.2461-2.4727-1.0117-5.3164-0.13281-6.7891 2.0938-1.4727 2.2266-1.168 5.1836 0.72656 7.0664 1.0586 1.0469 2.4883 1.6328 3.9766 1.625z"/>
  <path d="m285.6 182c0 3.0938-2.5078 5.6016-5.6016 5.6016s-5.6016-2.5078-5.6016-5.6016 2.5078-5.6016 5.6016-5.6016 5.6016 2.5078 5.6016 5.6016"/>
  <path d="m266 190.4c-2.2656 0-4.3086 1.3672-5.1719 3.457-0.86719 2.0938-0.39062 4.5039 1.2109 6.1055 1.6016 1.6016 4.0117 2.0781 6.1055 1.2109 2.0898-0.86328 3.457-2.9062 3.457-5.1719 0-1.4844-0.58984-2.9102-1.6406-3.9609-1.0508-1.0508-2.4766-1.6406-3.9609-1.6406z"/>
  <path d="m257.6 154c0 3.0938-2.5078 5.6016-5.6016 5.6016s-5.6016-2.5078-5.6016-5.6016 2.5078-5.6016 5.6016-5.6016 5.6016 2.5078 5.6016 5.6016"/>
  <path d="m238 162.4c-2.2656 0-4.3086 1.3672-5.1719 3.457-0.86719 2.0938-0.39062 4.5039 1.2109 6.1055 1.6016 1.6016 4.0117 2.0781 6.1055 1.2109 2.0898-0.86328 3.457-2.9062 3.457-5.1719 0-1.4844-0.58984-2.9102-1.6406-3.9609-1.0508-1.0508-2.4766-1.6406-3.9609-1.6406z"/>
  <path d="m266 145.6c2.6719-0.015624 4.957-1.918 5.4648-4.5391 0.50781-2.6211-0.90625-5.2383-3.3789-6.2461-2.4727-1.0117-5.3164-0.13281-6.7891 2.0938-1.4727 2.2266-1.168 5.1836 0.72656 7.0664 1.0586 1.0469 2.4883 1.6328 3.9766 1.625z"/>
  <path d="m257.6 182c0 3.0938-2.5078 5.6016-5.6016 5.6016s-5.6016-2.5078-5.6016-5.6016 2.5078-5.6016 5.6016-5.6016 5.6016 2.5078 5.6016 5.6016"/>
  <path d="m238 190.4c-2.2656 0-4.3086 1.3672-5.1719 3.457-0.86719 2.0938-0.39062 4.5039 1.2109 6.1055 1.6016 1.6016 4.0117 2.0781 6.1055 1.2109 2.0898-0.86328 3.457-2.9062 3.457-5.1719 0-1.4844-0.58984-2.9102-1.6406-3.9609-1.0508-1.0508-2.4766-1.6406-3.9609-1.6406z"/>
  <path d="m266 173.6c2.6719-0.015624 4.957-1.918 5.4648-4.5391 0.50781-2.6211-0.90625-5.2383-3.3789-6.2461-2.4727-1.0117-5.3164-0.13281-6.7891 2.0938-1.4727 2.2266-1.168 5.1836 0.72656 7.0664 1.0586 1.0469 2.4883 1.6328 3.9766 1.625z"/>
  <path d="m257.6 210c0 3.0938-2.5078 5.6016-5.6016 5.6016s-5.6016-2.5078-5.6016-5.6016 2.5078-5.6016 5.6016-5.6016 5.6016 2.5078 5.6016 5.6016"/>
  <path d="m238 218.4c-2.2656 0-4.3086 1.3672-5.1719 3.457-0.86719 2.0938-0.39062 4.5039 1.2109 6.1055 1.6016 1.6016 4.0117 2.0781 6.1055 1.2109 2.0898-0.86328 3.457-2.9062 3.457-5.1719 0-1.4844-0.58984-2.9102-1.6406-3.9609-1.0508-1.0508-2.4766-1.6406-3.9609-1.6406z"/>
  <path d="m257.6 238c0 3.0938-2.5078 5.6016-5.6016 5.6016s-5.6016-2.5078-5.6016-5.6016 2.5078-5.6016 5.6016-5.6016 5.6016 2.5078 5.6016 5.6016"/>
  <path d="m238 246.4c-2.2656 0-4.3086 1.3672-5.1719 3.457-0.86719 2.0938-0.39062 4.5039 1.2109 6.1055 1.6016 1.6016 4.0117 2.0781 6.1055 1.2109 2.0898-0.86328 3.457-2.9062 3.457-5.1719 0-1.4844-0.58984-2.9102-1.6406-3.9609-1.0508-1.0508-2.4766-1.6406-3.9609-1.6406z"/>
  <path d="m229.6 154c0 3.0938-2.5078 5.6016-5.6016 5.6016s-5.6016-2.5078-5.6016-5.6016 2.5078-5.6016 5.6016-5.6016 5.6016 2.5078 5.6016 5.6016"/>
  <path d="m238 145.6c2.6719-0.015624 4.957-1.918 5.4648-4.5391 0.50781-2.6211-0.90625-5.2383-3.3789-6.2461-2.4727-1.0117-5.3164-0.13281-6.7891 2.0938-1.4727 2.2266-1.168 5.1836 0.72656 7.0664 1.0586 1.0469 2.4883 1.6328 3.9766 1.625z"/>
  <path d="m229.6 182c0 3.0938-2.5078 5.6016-5.6016 5.6016s-5.6016-2.5078-5.6016-5.6016 2.5078-5.6016 5.6016-5.6016 5.6016 2.5078 5.6016 5.6016"/>
  <path d="m229.6 210c0 3.0938-2.5078 5.6016-5.6016 5.6016s-5.6016-2.5078-5.6016-5.6016 2.5078-5.6016 5.6016-5.6016 5.6016 2.5078 5.6016 5.6016"/>
  <path d="m210 218.4c-2.2656 0-4.3086 1.3672-5.1719 3.457-0.86719 2.0938-0.39062 4.5039 1.2109 6.1055 1.6016 1.6016 4.0117 2.0781 6.1055 1.2109 2.0898-0.86328 3.457-2.9062 3.457-5.1719 0-1.4844-0.58984-2.9102-1.6406-3.9609-1.0508-1.0508-2.4766-1.6406-3.9609-1.6406z"/>
  <path d="m229.6 238c0 3.0938-2.5078 5.6016-5.6016 5.6016s-5.6016-2.5078-5.6016-5.6016 2.5078-5.6016 5.6016-5.6016 5.6016 2.5078 5.6016 5.6016"/>
  <path d="m210 246.4c-2.2656 0-4.3086 1.3672-5.1719 3.457-0.86719 2.0938-0.39062 4.5039 1.2109 6.1055 1.6016 1.6016 4.0117 2.0781 6.1055 1.2109 2.0898-0.86328 3.457-2.9062 3.457-5.1719 0-1.4844-0.58984-2.9102-1.6406-3.9609-1.0508-1.0508-2.4766-1.6406-3.9609-1.6406z"/>
  <path d="m229.6 266c0 3.0938-2.5078 5.6016-5.6016 5.6016s-5.6016-2.5078-5.6016-5.6016 2.5078-5.6016 5.6016-5.6016 5.6016 2.5078 5.6016 5.6016"/>
  <path d="m210 274.4c-2.2656 0-4.3086 1.3672-5.1719 3.457-0.86719 2.0938-0.39062 4.5039 1.2109 6.1055 1.6016 1.6016 4.0117 2.0781 6.1055 1.2109 2.0898-0.86328 3.457-2.9062 3.457-5.1719 0-1.4844-0.58984-2.9102-1.6406-3.9609-1.0508-1.0508-2.4766-1.6406-3.9609-1.6406z"/>
  <path d="m229.6 294c0 3.0938-2.5078 5.6016-5.6016 5.6016s-5.6016-2.5078-5.6016-5.6016 2.5078-5.6016 5.6016-5.6016 5.6016 2.5078 5.6016 5.6016"/>
  <path d="m210 302.4c-2.2656 0-4.3086 1.3672-5.1719 3.457-0.86719 2.0938-0.39062 4.5039 1.2109 6.1055 1.6016 1.6016 4.0117 2.0781 6.1055 1.2109 2.0898-0.86328 3.457-2.9062 3.457-5.1719 0-1.4844-0.58984-2.9102-1.6406-3.9609-1.0508-1.0508-2.4766-1.6406-3.9609-1.6406z"/>
  <path d="m201.6 154c0 3.0938-2.5078 5.6016-5.6016 5.6016s-5.6016-2.5078-5.6016-5.6016 2.5078-5.6016 5.6016-5.6016 5.6016 2.5078 5.6016 5.6016"/>
  <path d="m210 145.6c2.6719-0.015624 4.957-1.918 5.4648-4.5391 0.50781-2.6211-0.90625-5.2383-3.3789-6.2461-2.4727-1.0117-5.3164-0.13281-6.7891 2.0938-1.4727 2.2266-1.168 5.1836 0.72656 7.0664 1.0586 1.0469 2.4883 1.6328 3.9766 1.625z"/>
  <path d="m201.6 182c0 3.0938-2.5078 5.6016-5.6016 5.6016s-5.6016-2.5078-5.6016-5.6016 2.5078-5.6016 5.6016-5.6016 5.6016 2.5078 5.6016 5.6016"/>
  <path d="m210 173.6c2.6719-0.015624 4.957-1.918 5.4648-4.5391 0.50781-2.6211-0.90625-5.2383-3.3789-6.2461-2.4727-1.0117-5.3164-0.13281-6.7891 2.0938-1.4727 2.2266-1.168 5.1836 0.72656 7.0664 1.0586 1.0469 2.4883 1.6328 3.9766 1.625z"/>
  <path d="m201.6 210c0 3.0938-2.5078 5.6016-5.6016 5.6016s-5.6016-2.5078-5.6016-5.6016 2.5078-5.6016 5.6016-5.6016 5.6016 2.5078 5.6016 5.6016"/>
  <path d="m210 201.6c2.6719-0.015624 4.957-1.918 5.4648-4.5391 0.50781-2.6211-0.90625-5.2383-3.3789-6.2461-2.4727-1.0117-5.3164-0.13281-6.7891 2.0938-1.4727 2.2266-1.168 5.1836 0.72656 7.0664 1.0586 1.0469 2.4883 1.6328 3.9766 1.625z"/>
  <path d="m201.6 238c0 3.0938-2.5078 5.6016-5.6016 5.6016s-5.6016-2.5078-5.6016-5.6016 2.5078-5.6016 5.6016-5.6016 5.6016 2.5078 5.6016 5.6016"/>
  <path d="m182 246.4c-2.2656 0-4.3086 1.3672-5.1719 3.457-0.86719 2.0938-0.39062 4.5039 1.2109 6.1055 1.6016 1.6016 4.0117 2.0781 6.1055 1.2109 2.0898-0.86328 3.457-2.9062 3.457-5.1719 0-1.4844-0.58984-2.9102-1.6406-3.9609-1.0508-1.0508-2.4766-1.6406-3.9609-1.6406z"/>
  <path d="m201.6 266c0 3.0938-2.5078 5.6016-5.6016 5.6016s-5.6016-2.5078-5.6016-5.6016 2.5078-5.6016 5.6016-5.6016 5.6016 2.5078 5.6016 5.6016"/>
  <path d="m201.6 294c0 3.0938-2.5078 5.6016-5.6016 5.6016s-5.6016-2.5078-5.6016-5.6016 2.5078-5.6016 5.6016-5.6016 5.6016 2.5078 5.6016 5.6016"/>
  <path d="m201.6 322c0 3.0938-2.5078 5.6016-5.6016 5.6016s-5.6016-2.5078-5.6016-5.6016 2.5078-5.6016 5.6016-5.6016 5.6016 2.5078 5.6016 5.6016"/>
  <path d="m173.6 154c0 3.0938-2.5078 5.6016-5.6016 5.6016s-5.6016-2.5078-5.6016-5.6016 2.5078-5.6016 5.6016-5.6016 5.6016 2.5078 5.6016 5.6016"/>
  <path d="m173.6 182c0 3.0938-2.5078 5.6016-5.6016 5.6016s-5.6016-2.5078-5.6016-5.6016 2.5078-5.6016 5.6016-5.6016 5.6016 2.5078 5.6016 5.6016"/>
  <path d="m182 173.6c2.6719-0.015624 4.957-1.918 5.4648-4.5391 0.50781-2.6211-0.90625-5.2383-3.3789-6.2461-2.4727-1.0117-5.3164-0.13281-6.7891 2.0938-1.4727 2.2266-1.168 5.1836 0.72656 7.0664 1.0586 1.0469 2.4883 1.6328 3.9766 1.625z"/>
  <path d="m173.6 210c0 3.0938-2.5078 5.6016-5.6016 5.6016s-5.6016-2.5078-5.6016-5.6016 2.5078-5.6016 5.6016-5.6016 5.6016 2.5078 5.6016 5.6016"/>
  <path d="m182 201.6c2.6719-0.015624 4.957-1.918 5.4648-4.5391 0.50781-2.6211-0.90625-5.2383-3.3789-6.2461-2.4727-1.0117-5.3164-0.13281-6.7891 2.0938-1.4727 2.2266-1.168 5.1836 0.72656 7.0664 1.0586 1.0469 2.4883 1.6328 3.9766 1.625z"/>
  <path d="m182 229.6c2.6719-0.015624 4.957-1.918 5.4648-4.5391 0.50781-2.6211-0.90625-5.2383-3.3789-6.2461-2.4727-1.0117-5.3164-0.13281-6.7891 2.0938-1.4727 2.2266-1.168 5.1836 0.72656 7.0664 1.0586 1.0469 2.4883 1.6328 3.9766 1.625z"/>
  <path d="m154 173.6c2.6719-0.015624 4.957-1.918 5.4648-4.5391 0.50781-2.6211-0.90625-5.2383-3.3789-6.2461-2.4727-1.0117-5.3164-0.13281-6.7891 2.0938-1.4727 2.2266-1.168 5.1836 0.72656 7.0664 1.0586 1.0469 2.4883 1.6328 3.9766 1.625z"/>
  <path d="m537.6 406c0 3.0938-2.5078 5.6016-5.6016 5.6016s-5.6016-2.5078-5.6016-5.6016 2.5078-5.6016 5.6016-5.6016 5.6016 2.5078 5.6016 5.6016"/>
  <path d="m518 414.4c-2.2656 0-4.3086 1.3672-5.1719 3.457-0.86719 2.0938-0.39062 4.5039 1.2109 6.1055 1.6016 1.6016 4.0117 2.0781 6.1055 1.2109 2.0898-0.86328 3.457-2.9062 3.457-5.1719 0-1.4844-0.58984-2.9102-1.6406-3.9609-1.0508-1.0508-2.4766-1.6406-3.9609-1.6406z"/>
  <path d="m509.6 406c0 3.0938-2.5078 5.6016-5.6016 5.6016s-5.6016-2.5078-5.6016-5.6016 2.5078-5.6016 5.6016-5.6016 5.6016 2.5078 5.6016 5.6016"/>
  <path d="m490 414.4c-2.2656 0-4.3086 1.3672-5.1719 3.457-0.86719 2.0938-0.39062 4.5039 1.2109 6.1055 1.6016 1.6016 4.0117 2.0781 6.1055 1.2109 2.0898-0.86328 3.457-2.9062 3.457-5.1719 0-1.4844-0.58984-2.9102-1.6406-3.9609-1.0508-1.0508-2.4766-1.6406-3.9609-1.6406z"/>
  <path d="m518 397.6c2.6719-0.015624 4.957-1.918 5.4648-4.5391 0.50781-2.6211-0.90625-5.2383-3.3789-6.2461-2.4727-1.0117-5.3164-0.13281-6.7891 2.0938-1.4727 2.2266-1.168 5.1836 0.72656 7.0664 1.0586 1.0469 2.4883 1.6328 3.9766 1.625z"/>
  <path d="m481.6 434c0 3.0938-2.5078 5.6016-5.6016 5.6016s-5.6016-2.5078-5.6016-5.6016 2.5078-5.6016 5.6016-5.6016 5.6016 2.5078 5.6016 5.6016"/>
  <path d="m462 442.4c-2.2656 0-4.3086 1.3672-5.1719 3.457-0.86719 2.0938-0.39062 4.5039 1.2109 6.1055 1.6016 1.6016 4.0117 2.0781 6.1055 1.2109 2.0898-0.86328 3.457-2.9062 3.457-5.1719 0-1.4844-0.58984-2.9102-1.6406-3.9609-1.0508-1.0508-2.4766-1.6406-3.9609-1.6406z"/>
  <path d="m453.6 462c0 3.0938-2.5078 5.6016-5.6016 5.6016s-5.6016-2.5078-5.6016-5.6016 2.5078-5.6016 5.6016-5.6016 5.6016 2.5078 5.6016 5.6016"/>
  <path d="m546 162.4c-2.2656 0-4.3086 1.3672-5.1719 3.457-0.86719 2.0938-0.39062 4.5039 1.2109 6.1055 1.6016 1.6016 4.0117 2.0781 6.1055 1.2109 2.0898-0.86328 3.457-2.9062 3.457-5.1719 0-1.4844-0.58984-2.9102-1.6406-3.9609-1.0508-1.0508-2.4766-1.6406-3.9609-1.6406z"/>
  <path d="m537.6 154c0 3.0938-2.5078 5.6016-5.6016 5.6016s-5.6016-2.5078-5.6016-5.6016 2.5078-5.6016 5.6016-5.6016 5.6016 2.5078 5.6016 5.6016"/>
  <path d="m537.6 182c0 3.0938-2.5078 5.6016-5.6016 5.6016s-5.6016-2.5078-5.6016-5.6016 2.5078-5.6016 5.6016-5.6016 5.6016 2.5078 5.6016 5.6016"/>
  <path d="m518 190.4c-2.2656 0-4.3086 1.3672-5.1719 3.457-0.86719 2.0938-0.39062 4.5039 1.2109 6.1055 1.6016 1.6016 4.0117 2.0781 6.1055 1.2109 2.0898-0.86328 3.457-2.9062 3.457-5.1719 0-1.4844-0.58984-2.9102-1.6406-3.9609-1.0508-1.0508-2.4766-1.6406-3.9609-1.6406z"/>
  <path d="m537.6 210c0 3.0938-2.5078 5.6016-5.6016 5.6016s-5.6016-2.5078-5.6016-5.6016 2.5078-5.6016 5.6016-5.6016 5.6016 2.5078 5.6016 5.6016"/>
  <path d="m518 218.4c-2.2656 0-4.3086 1.3672-5.1719 3.457-0.86719 2.0938-0.39062 4.5039 1.2109 6.1055 1.6016 1.6016 4.0117 2.0781 6.1055 1.2109 2.0898-0.86328 3.457-2.9062 3.457-5.1719 0-1.4844-0.58984-2.9102-1.6406-3.9609-1.0508-1.0508-2.4766-1.6406-3.9609-1.6406z"/>
  <path d="m518 246.4c-2.2656 0-4.3086 1.3672-5.1719 3.457-0.86719 2.0938-0.39062 4.5039 1.2109 6.1055 1.6016 1.6016 4.0117 2.0781 6.1055 1.2109 2.0898-0.86328 3.457-2.9062 3.457-5.1719 0-1.4844-0.58984-2.9102-1.6406-3.9609-1.0508-1.0508-2.4766-1.6406-3.9609-1.6406z"/>
  <path d="m509.6 154c0 3.0938-2.5078 5.6016-5.6016 5.6016s-5.6016-2.5078-5.6016-5.6016 2.5078-5.6016 5.6016-5.6016 5.6016 2.5078 5.6016 5.6016"/>
  <path d="m490 162.4c-2.2656 0-4.3086 1.3672-5.1719 3.457-0.86719 2.0938-0.39062 4.5039 1.2109 6.1055 1.6016 1.6016 4.0117 2.0781 6.1055 1.2109 2.0898-0.86328 3.457-2.9062 3.457-5.1719 0-1.4844-0.58984-2.9102-1.6406-3.9609-1.0508-1.0508-2.4766-1.6406-3.9609-1.6406z"/>
  <path d="m509.6 182c0 3.0938-2.5078 5.6016-5.6016 5.6016s-5.6016-2.5078-5.6016-5.6016 2.5078-5.6016 5.6016-5.6016 5.6016 2.5078 5.6016 5.6016"/>
  <path d="m490 190.4c-2.2656 0-4.3086 1.3672-5.1719 3.457-0.86719 2.0938-0.39062 4.5039 1.2109 6.1055 1.6016 1.6016 4.0117 2.0781 6.1055 1.2109 2.0898-0.86328 3.457-2.9062 3.457-5.1719 0-1.4844-0.58984-2.9102-1.6406-3.9609-1.0508-1.0508-2.4766-1.6406-3.9609-1.6406z"/>
  <path d="m514.02 171.98c1.8828 1.8945 4.8398 2.1992 7.0664 0.72656 2.2266-1.4727 3.1055-4.3164 2.0938-6.7891-1.0078-2.4727-3.625-3.8867-6.2461-3.3789-2.6211 0.50781-4.5234 2.793-4.5391 5.4648-0.007813 1.4883 0.57812 2.918 1.625 3.9766z"/>
  <path d="m509.6 210c0 3.0938-2.5078 5.6016-5.6016 5.6016s-5.6016-2.5078-5.6016-5.6016 2.5078-5.6016 5.6016-5.6016 5.6016 2.5078 5.6016 5.6016"/>
  <path d="m490 218.4c-2.2656 0-4.3086 1.3672-5.1719 3.457-0.86719 2.0938-0.39062 4.5039 1.2109 6.1055 1.6016 1.6016 4.0117 2.0781 6.1055 1.2109 2.0898-0.86328 3.457-2.9062 3.457-5.1719 0-1.4844-0.58984-2.9102-1.6406-3.9609-1.0508-1.0508-2.4766-1.6406-3.9609-1.6406z"/>
  <path d="m509.6 238c0 3.0938-2.5078 5.6016-5.6016 5.6016s-5.6016-2.5078-5.6016-5.6016 2.5078-5.6016 5.6016-5.6016 5.6016 2.5078 5.6016 5.6016"/>
  <path d="m490 246.4c-2.2656 0-4.3086 1.3672-5.1719 3.457-0.86719 2.0938-0.39062 4.5039 1.2109 6.1055 1.6016 1.6016 4.0117 2.0781 6.1055 1.2109 2.0898-0.86328 3.457-2.9062 3.457-5.1719 0-1.4844-0.58984-2.9102-1.6406-3.9609-1.0508-1.0508-2.4766-1.6406-3.9609-1.6406z"/>
  <path d="m509.6 266c0 3.0938-2.5078 5.6016-5.6016 5.6016s-5.6016-2.5078-5.6016-5.6016 2.5078-5.6016 5.6016-5.6016 5.6016 2.5078 5.6016 5.6016"/>
  <path d="m490 274.4c-2.2656 0-4.3086 1.3672-5.1719 3.457-0.86719 2.0938-0.39062 4.5039 1.2109 6.1055 1.6016 1.6016 4.0117 2.0781 6.1055 1.2109 2.0898-0.86328 3.457-2.9062 3.457-5.1719 0-1.4844-0.58984-2.9102-1.6406-3.9609-1.0508-1.0508-2.4766-1.6406-3.9609-1.6406z"/>
  <path d="m509.6 294c0 3.0938-2.5078 5.6016-5.6016 5.6016s-5.6016-2.5078-5.6016-5.6016 2.5078-5.6016 5.6016-5.6016 5.6016 2.5078 5.6016 5.6016"/>
  <path d="m490 302.4c-2.2656 0-4.3086 1.3672-5.1719 3.457-0.86719 2.0938-0.39062 4.5039 1.2109 6.1055 1.6016 1.6016 4.0117 2.0781 6.1055 1.2109 2.0898-0.86328 3.457-2.9062 3.457-5.1719 0-1.4844-0.58984-2.9102-1.6406-3.9609-1.0508-1.0508-2.4766-1.6406-3.9609-1.6406z"/>
  <path d="m509.6 322c0 3.0938-2.5078 5.6016-5.6016 5.6016s-5.6016-2.5078-5.6016-5.6016 2.5078-5.6016 5.6016-5.6016 5.6016 2.5078 5.6016 5.6016"/>
  <path d="m481.6 154c0 3.0938-2.5078 5.6016-5.6016 5.6016s-5.6016-2.5078-5.6016-5.6016 2.5078-5.6016 5.6016-5.6016 5.6016 2.5078 5.6016 5.6016"/>
  <path d="m490 145.6c2.6719-0.015624 4.957-1.918 5.4648-4.5391 0.50781-2.6211-0.90625-5.2383-3.3789-6.2461-2.4727-1.0117-5.3164-0.13281-6.7891 2.0938-1.4727 2.2266-1.168 5.1836 0.72656 7.0664 1.0586 1.0469 2.4883 1.6328 3.9766 1.625z"/>
  <path d="m481.6 182c0 3.0938-2.5078 5.6016-5.6016 5.6016s-5.6016-2.5078-5.6016-5.6016 2.5078-5.6016 5.6016-5.6016 5.6016 2.5078 5.6016 5.6016"/>
  <path d="m481.6 210c0 3.0938-2.5078 5.6016-5.6016 5.6016s-5.6016-2.5078-5.6016-5.6016 2.5078-5.6016 5.6016-5.6016 5.6016 2.5078 5.6016 5.6016"/>
  <path d="m481.6 238c0 3.0938-2.5078 5.6016-5.6016 5.6016s-5.6016-2.5078-5.6016-5.6016 2.5078-5.6016 5.6016-5.6016 5.6016 2.5078 5.6016 5.6016"/>
  <path d="m462 246.4c-2.2656 0-4.3086 1.3672-5.1719 3.457-0.86719 2.0938-0.39062 4.5039 1.2109 6.1055 1.6016 1.6016 4.0117 2.0781 6.1055 1.2109 2.0898-0.86328 3.457-2.9062 3.457-5.1719 0-1.4844-0.58984-2.9102-1.6406-3.9609-1.0508-1.0508-2.4766-1.6406-3.9609-1.6406z"/>
  <path d="m481.6 266c0 3.0938-2.5078 5.6016-5.6016 5.6016s-5.6016-2.5078-5.6016-5.6016 2.5078-5.6016 5.6016-5.6016 5.6016 2.5078 5.6016 5.6016"/>
  <path d="m481.6 294c0 3.0938-2.5078 5.6016-5.6016 5.6016s-5.6016-2.5078-5.6016-5.6016 2.5078-5.6016 5.6016-5.6016 5.6016 2.5078 5.6016 5.6016"/>
  <path d="m453.6 154c0 3.0938-2.5078 5.6016-5.6016 5.6016s-5.6016-2.5078-5.6016-5.6016 2.5078-5.6016 5.6016-5.6016 5.6016 2.5078 5.6016 5.6016"/>
  <path d="m434 162.4c-2.2656 0-4.3086 1.3672-5.1719 3.457-0.86719 2.0938-0.39062 4.5039 1.2109 6.1055 1.6016 1.6016 4.0117 2.0781 6.1055 1.2109 2.0898-0.86328 3.457-2.9062 3.457-5.1719 0-1.4844-0.58984-2.9102-1.6406-3.9609-1.0508-1.0508-2.4766-1.6406-3.9609-1.6406z"/>
  <path d="m462 145.6c2.6719-0.015624 4.957-1.918 5.4648-4.5391 0.50781-2.6211-0.90625-5.2383-3.3789-6.2461-2.4727-1.0117-5.3164-0.13281-6.7891 2.0938-1.4727 2.2266-1.168 5.1836 0.72656 7.0664 1.0586 1.0469 2.4883 1.6328 3.9766 1.625z"/>
  <path d="m453.6 182c0 3.0938-2.5078 5.6016-5.6016 5.6016s-5.6016-2.5078-5.6016-5.6016 2.5078-5.6016 5.6016-5.6016 5.6016 2.5078 5.6016 5.6016"/>
  <path d="m434 190.4c-2.2656 0-4.3086 1.3672-5.1719 3.457-0.86719 2.0938-0.39062 4.5039 1.2109 6.1055 1.6016 1.6016 4.0117 2.0781 6.1055 1.2109 2.0898-0.86328 3.457-2.9062 3.457-5.1719 0-1.4844-0.58984-2.9102-1.6406-3.9609-1.0508-1.0508-2.4766-1.6406-3.9609-1.6406z"/>
  <path d="m462 173.6c2.6719-0.015624 4.957-1.918 5.4648-4.5391 0.50781-2.6211-0.90625-5.2383-3.3789-6.2461-2.4727-1.0117-5.3164-0.13281-6.7891 2.0938-1.4727 2.2266-1.168 5.1836 0.72656 7.0664 1.0586 1.0469 2.4883 1.6328 3.9766 1.625z"/>
  <path d="m453.6 210c0 3.0938-2.5078 5.6016-5.6016 5.6016s-5.6016-2.5078-5.6016-5.6016 2.5078-5.6016 5.6016-5.6016 5.6016 2.5078 5.6016 5.6016"/>
  <path d="m462 201.6c2.6719-0.015624 4.957-1.918 5.4648-4.5391 0.50781-2.6211-0.90625-5.2383-3.3789-6.2461-2.4727-1.0117-5.3164-0.13281-6.7891 2.0938-1.4727 2.2266-1.168 5.1836 0.72656 7.0664 1.0586 1.0469 2.4883 1.6328 3.9766 1.625z"/>
  <path d="m453.6 238c0 3.0938-2.5078 5.6016-5.6016 5.6016s-5.6016-2.5078-5.6016-5.6016 2.5078-5.6016 5.6016-5.6016 5.6016 2.5078 5.6016 5.6016"/>
  <path d="m462 229.6c2.6719-0.015624 4.957-1.918 5.4648-4.5391 0.50781-2.6211-0.90625-5.2383-3.3789-6.2461-2.4727-1.0117-5.3164-0.13281-6.7891 2.0938-1.4727 2.2266-1.168 5.1836 0.72656 7.0664 1.0586 1.0469 2.4883 1.6328 3.9766 1.625z"/>
  <path d="m425.6 126c0 3.0938-2.5078 5.6016-5.6016 5.6016s-5.6016-2.5078-5.6016-5.6016 2.5078-5.6016 5.6016-5.6016 5.6016 2.5078 5.6016 5.6016"/>
  <path d="m425.6 154c0 3.0938-2.5078 5.6016-5.6016 5.6016s-5.6016-2.5078-5.6016-5.6016 2.5078-5.6016 5.6016-5.6016 5.6016 2.5078 5.6016 5.6016"/>
  <path d="m406 162.4c-2.2656 0-4.3086 1.3672-5.1719 3.457-0.86719 2.0938-0.39062 4.5039 1.2109 6.1055 1.6016 1.6016 4.0117 2.0781 6.1055 1.2109 2.0898-0.86328 3.457-2.9062 3.457-5.1719 0-1.4844-0.58984-2.9102-1.6406-3.9609-1.0508-1.0508-2.4766-1.6406-3.9609-1.6406z"/>
  <path d="m434 145.6c2.6719-0.015624 4.957-1.918 5.4648-4.5391 0.50781-2.6211-0.90625-5.2383-3.3789-6.2461-2.4727-1.0117-5.3164-0.13281-6.7891 2.0938-1.4727 2.2266-1.168 5.1836 0.72656 7.0664 1.0586 1.0469 2.4883 1.6328 3.9766 1.625z"/>
  <path d="m425.6 182c0 3.0938-2.5078 5.6016-5.6016 5.6016s-5.6016-2.5078-5.6016-5.6016 2.5078-5.6016 5.6016-5.6016 5.6016 2.5078 5.6016 5.6016"/>
  <path d="m397.6 126c0 3.0938-2.5078 5.6016-5.6016 5.6016s-5.6016-2.5078-5.6016-5.6016 2.5078-5.6016 5.6016-5.6016 5.6016 2.5078 5.6016 5.6016"/>
  <path d="m406 145.6c2.6719-0.015624 4.957-1.918 5.4648-4.5391 0.50781-2.6211-0.90625-5.2383-3.3789-6.2461-2.4727-1.0117-5.3164-0.13281-6.7891 2.0938-1.4727 2.2266-1.168 5.1836 0.72656 7.0664 1.0586 1.0469 2.4883 1.6328 3.9766 1.625z"/>
  <path d="m352.07 22.848h-1.3438l-0.72656-0.44922h-2.6328l-219.8 120.46c-0.12891-0.023438-0.26172-0.023438-0.39062 0l-0.61719 0.50391-0.55859 0.44922c-0.13281 0.17188-0.24609 0.35938-0.33594 0.55859v0.33594c-0.007812 0.13281-0.007812 0.26172 0 0.39453-0.027343 0.14453-0.027343 0.29688 0 0.44531-0.03125 0.26172-0.03125 0.52344 0 0.78516-0.027343 0.26172-0.027343 0.52344 0 0.78516v0.33594 259.84 0.67188 0.78516-0.003906c0.070313 0.21875 0.16406 0.42187 0.28125 0.61719 0 0 0 0.50391 0.28125 0.72656l0.50391 0.61719 0.39062 0.50391 0.61719 0.44922h-0.003906c0.16406 0.17969 0.35156 0.33203 0.5625 0.44922l218.9 124.77h0.33594c0.76172 0.41406 1.6016 0.66406 2.4648 0.73047 0.66797-0.03125 1.332-0.16016 1.9609-0.39453h0.61719l219.96-124.71 0.55859-0.39062 0.89844-0.50391 0.33594-0.44922 0.55859-0.67188c-0.03125-0.1875-0.03125-0.375 0-0.55859l0.33594-0.78516c0.027343-0.24219 0.027343-0.48828 0-0.73047 0.027343-0.23828 0.027343-0.48438 0-0.72656v-259.89c-0.003907-0.09375-0.003907-0.1875 0-0.28125 0.023437-0.26172 0.023437-0.52344 0-0.78516 0.03125-0.25781 0.03125-0.52344 0-0.78125-0.070313-0.17969-0.16406-0.35156-0.27734-0.50391v-0.33594-0.33594c-0.09375-0.19922-0.20312-0.38672-0.33594-0.5625l-0.55859-0.44922-0.61719-0.50391c-0.12891-0.023438-0.26562-0.023438-0.39453 0l-220.41-120.18zm141.91 421.23c-1.5938-1.6055-4.0039-2.0938-6.0977-1.2383-2.0977 0.85938-3.4688 2.8945-3.4805 5.1602-0.054688 0.44531-0.054688 0.89844 0 1.3438l-44.797 25.648c-0.49609-2.6953-2.8633-4.6367-5.6016-4.5938-2.2734-0.011719-4.332 1.3516-5.2031 3.4531-0.875 2.1016-0.38672 4.5234 1.2266 6.125l-8.2891 4.6484c-0.64062-0.25391-1.3242-0.38672-2.0156-0.39453-2.7383-0.042969-5.1055 1.8984-5.5977 4.5938l-31.641 18.312c0.63672-0.80078 1.0078-1.7812 1.0625-2.8008l8.1758-8.793c1.4883 0 2.9102-0.58984 3.9609-1.6406 1.0508-1.0469 1.6406-2.4727 1.6406-3.957v-0.55859l7.6719-7.7852c0.33203 0.050782 0.67578 0.050782 1.0078 0 1.8125 0.22266 3.6133-0.51172 4.7539-1.9375 1.1445-1.4258 1.4609-3.3438 0.84766-5.0625l6.8867-7.3359c0.57812 0.19531 1.1797 0.30859 1.793 0.33594 1.875-0.003906 3.6289-0.94531 4.6641-2.5117 1.0352-1.5664 1.2188-3.5469 0.48828-5.2734l6.4414-6.832h-0.003906c0.65625 0.36328 1.3828 0.57422 2.1289 0.61719 1.4844 0 2.9102-0.58984 3.9609-1.6406 1.0508-1.0508 1.6406-2.4766 1.6406-3.9609-0.023437-0.96875-0.29297-1.9141-0.78516-2.7422l6.3828-6.6641c0.85547 0.64453 1.8984 1 2.9688 1.0078 1.4844 0 2.9102-0.58984 3.9609-1.6406 1.0508-1.0508 1.6406-2.4766 1.6406-3.9609-0.03125-1.1992-0.44141-2.3555-1.1758-3.3047l6.0469-6.4414v0.003906c2.2891 1.6055 5.4102 1.2773 7.3164-0.76953s2.0078-5.1836 0.24219-7.3516l5.9375-6.3281c1.043 1.125 2.5 1.7695 4.0312 1.793 1.4844 0 2.9102-0.58984 3.9609-1.6406 1.0508-1.0508 1.6406-2.4766 1.6406-3.9609-0.027343-1.6562-0.78906-3.2148-2.0742-4.2578l6.0469-6.4961 0.44922 0.72656v0.003906c1.1016 1.2031 2.6758 1.8672 4.3086 1.8125 1.6328-0.050781 3.1602-0.8125 4.1836-2.082 1.0234-1.2734 1.4414-2.9297 1.1445-4.5352s-1.2812-3-2.6914-3.8203l6.0469-6.5508c1.1719 1.9141 3.375 2.9414 5.5977 2.6094 2.2188-0.32812 4.0273-1.9492 4.5938-4.1211l45.137 26.152v0.67188c0.039062 1.1797 0.45312 2.3164 1.1758 3.2461l-9.3516 5.0391h-0.33594c-2.0547 0.039062-3.9258 1.1992-4.8711 3.0273l-31.809 17.977v-0.003906c0.38672-3.0898-1.8086-5.9102-4.8984-6.2969-3.0938-0.38672-5.9141 1.8047-6.3008 4.8984 0.046875 2.4492 1.6797 4.5781 4.0312 5.2656zm35.223-312.09-173.6-42.391v-52.195zm-184.8-94.586v52.195l-173.6 42.391zm219.75 360.53-54.879-31.754 54.879-180.71zm-424.48-238.39h0.33594c2.2383-0.007813 4.2539-1.3477 5.1289-3.4023 0.87891-2.0586 0.44531-4.4414-1.0977-6.0625l32.762-8.0625c0.30859 0.69531 0.72656 1.3359 1.2305 1.9062 1.5938 1.6055 4.0039 2.0938 6.0977 1.2383 2.0977-0.85938 3.4688-2.8945 3.4805-5.1602v-0.55859l34.16-8.3984v-0.003907c0.73047 0.35547 1.5352 0.54688 2.3516 0.5625 1.6914-0.039062 3.2773-0.84375 4.3125-2.1875l18.312-4.4805-0.003906 0.003906c-0.03125 0.35156-0.03125 0.70703 0 1.0625 0 3.0938 2.5078 5.6016 5.6016 5.6016s5.6016-2.5078 5.6016-5.6016c-0.023438-1.2695-0.48047-2.4961-1.2891-3.4727l32.762-8.0078h-0.003906c0.26562 0.51953 0.58594 1.0078 0.95312 1.457 1.625 1.3906 3.8984 1.7383 5.8594 0.89453 1.9648-0.84766 3.2773-2.7344 3.3828-4.8711l19.992-4.9297c-1.9102 0.91016-3.1445 2.8164-3.1953 4.9297 0 2.2656 1.3672 4.3086 3.457 5.1719 2.0938 0.86719 4.5039 0.39062 6.1055-1.2109 1.6016-1.6016 2.0781-4.0117 1.2109-6.1055-0.86328-2.0898-2.9062-3.457-5.1719-3.457l12.602-3.0781c0.45313 0.15234 0.92188 0.24609 1.3984 0.28125 0.85547-0.027343 1.6953-0.23828 2.4648-0.61719l-17.586 31.414c-2.6484 0.54297-4.5352 2.8984-4.4805 5.6016 0.019531 0.6875 0.15234 1.3711 0.39453 2.0156l-4.6484 8.3438c-1.0391-1.2148-2.5469-1.9258-4.1445-1.9609-3.0938 0-5.6016 2.5078-5.6016 5.6016-0.035157 2.7734 1.9688 5.1562 4.707 5.6016l-25.145 45.359c-0.625-0.25-1.2891-0.38281-1.9609-0.39453-3.0938 0-5.6016 2.5078-5.6016 5.6016 0.035156 1.7227 0.86328 3.3359 2.2422 4.3672l-5.0391 9.0742c-0.20703-2.9414-2.6562-5.2148-5.6016-5.2109-3.0938 0-5.6016 2.5078-5.6016 5.6016s2.5078 5.6016 5.6016 5.6016c0.89844-0.015624 1.7852-0.24609 2.5742-0.67187l-17.641 31.695h0.003906c-2.6719 0.51562-4.5859 2.8789-4.5391 5.5977 0.011718 0.71094 0.14453 1.4102 0.39453 2.0742l-4.5938 8.3438c-0.99609-1.3359-2.5352-2.1562-4.1992-2.2422-2.2734-0.011719-4.332 1.3516-5.2031 3.4531-0.875 2.1016-0.38672 4.5234 1.2266 6.125 0.86719 0.80469 1.9648 1.3125 3.1367 1.457l-25.145 45.359c-0.64062-0.25391-1.3242-0.38672-2.0156-0.39453-2.2734-0.011719-4.332 1.3516-5.2031 3.4531-0.875 2.1016-0.38672 4.5234 1.2266 6.125l0.67187 0.39063-5.1523 9.2969c-0.17578-2.9609-2.6328-5.2695-5.5977-5.2656l-9.8555-32.48v0.003906c0.99219-1.0625 1.5352-2.4688 1.5117-3.9219 0.046876-2.7227-1.8672-5.082-4.5391-5.6016l-6.1602-20.383c0.27344 0.63672 0.65234 1.2266 1.1211 1.7383 1.8984 1.9062 4.8867 2.1953 7.1133 0.6875 2.2305-1.5078 3.0664-4.3906 2-6.8594-1.0703-2.4727-3.7461-3.832-6.3711-3.2383-2.625 0.58984-4.4609 2.9648-4.3672 5.6562 0.019531 0.65234 0.15234 1.2969 0.39453 1.9023l-3.9766-13.102c0.49219-0.83203 0.76172-1.7773 0.78516-2.7461-0.019531-2.1211-1.2344-4.0508-3.1367-4.9844l-5.6016-18.535c0.92188 0.69531 2.0391 1.0859 3.1914 1.1211 2.0703 0.011719 3.9805-1.1211 4.9609-2.9453 0.98047-1.8242 0.875-4.0391-0.27344-5.7617-1.1484-1.7227-3.1523-2.6719-5.2109-2.4648-2.0625 0.20312-3.8398 1.5273-4.6289 3.4453l-3.4141-11.199v-0.003907c0.070313-0.23437 0.10547-0.48047 0.11328-0.72656-0.007812-1.4141-0.54687-2.7734-1.5117-3.8086l-5.6016-18.93v0.003906c1.5859 0.5625 3.3438 0.38281 4.7812-0.48828 1.4414-0.875 2.4102-2.3516 2.6406-4.0156 0.23438-1.668-0.29688-3.3516-1.4414-4.5859-1.1484-1.2344-2.7891-1.8867-4.4688-1.7773-1.6953 0.039062-3.2773 0.84375-4.3125 2.1875l-8.2891-27.387zm353.47 203.67h-286.33l143.19-257.88zm-283.14 11.199h280l-140 149.41zm350-214.81h0.33594l-10.023 32.984c-1.2852-1.6602-3.3867-2.4609-5.4492-2.0781-2.0586 0.38281-3.7344 1.8867-4.3398 3.8906-0.60547 2.0078-0.035157 4.1836 1.4688 5.6406 1.5078 1.457 3.7031 1.9531 5.6875 1.2812l-5.6016 18.984c-1 0.97656-1.6016 2.2969-1.6797 3.6953-0.019532 0.24219-0.019532 0.48438 0 0.72656l-3.4141 11.199v0.003907c-0.875-2.0703-2.9062-3.4141-5.1523-3.418-3.0938 0-5.6016 2.5078-5.6016 5.6016 0 3.0898 2.5078 5.5977 5.6016 5.5977 1.1289-0.03125 2.2227-0.39844 3.1367-1.0625l-5.6016 18.535c-1.8633 0.94141-3.0508 2.8398-3.0781 4.9297 0.027344 0.94531 0.29688 1.8711 0.78125 2.6875l-3.4688 12.711c0.058594-0.50391 0.058594-1.0078 0-1.5117 0.042969-2.8555-2.0664-5.2891-4.9023-5.6484-2.8359-0.35547-5.4844 1.4805-6.1445 4.2617-0.66406 2.7773 0.875 5.6094 3.5664 6.5703 2.6914 0.96094 5.6719-0.26172 6.918-2.832l-6.1602 20.047c-1.9805 0.42969-3.5781 1.8984-4.1719 3.8398-0.59375 1.9414-0.089843 4.0508 1.3164 5.5156l-9.8555 32.48v-0.003906c-3.0938 0-5.6016 2.5078-5.6016 5.6016l-5.207-9.3516c1.4102-1.0586 2.2422-2.7188 2.2422-4.4805 0-1.4844-0.58984-2.9102-1.6406-3.9609-1.0508-1.0508-2.4766-1.6406-3.9609-1.6406-0.70703 0.019531-1.4062 0.15234-2.0703 0.39453l-4.6484-8.3984-20.496-36.793c2.7812-0.39453 4.8438-2.7891 4.8164-5.6016-0.046874-2.3242-1.5234-4.3789-3.7148-5.1602-2.1875-0.78516-4.6328-0.13672-6.1445 1.6328l-4.5938-8.2891h0.003906c0.29297-0.69141 0.44531-1.4336 0.44922-2.1836 0.039063-2.7578-1.9336-5.1328-4.6484-5.6016l-17.641-31.754v0.003907c2.1836 1.2227 4.9141 0.84766 6.6875-0.91797s2.1602-4.4922 0.94922-6.6836c-1.2148-2.1875-3.7344-3.3047-6.1719-2.7383-2.4375 0.57031-4.2031 2.6875-4.3203 5.1875l-5.1523-9.2969c1.3984-1.0195 2.2461-2.6328 2.2969-4.3672 0-1.4844-0.58984-2.9102-1.6406-3.9609-1.0508-1.0508-2.4766-1.6406-3.9609-1.6406-0.69141 0.007812-1.375 0.14062-2.0156 0.39453l-25.145-45.359c2.7617-0.42188 4.793-2.8086 4.7617-5.6016 0-1.4844-0.58984-2.9102-1.6406-3.9609-1.0508-1.0508-2.4766-1.6406-3.9609-1.6406-1.625 0.03125-3.1602 0.76562-4.1992 2.0156l-4.5938-8.3438c0.21094-0.55469 0.34375-1.1406 0.39453-1.7344 0.046876-2.7227-1.8672-5.082-4.5391-5.6016l-17.863-31.469c0.79297 0.42578 1.6758 0.65625 2.5781 0.67187 0.47266-0.039062 0.94531-0.13672 1.3984-0.28125l12.824 3.0781c-2.8398-0.015626-5.2422 2.0977-5.5898 4.9141-0.34766 2.8203 1.4688 5.4531 4.2266 6.1289 2.7578 0.67188 5.5859-0.82422 6.5781-3.4883 0.99219-2.6602-0.16797-5.6406-2.6953-6.9375l19.879 4.9844c0 1.4844 0.58984 2.9102 1.6406 3.9609 1.0508 1.0508 2.4766 1.6406 3.9609 1.6406 2.0898-0.027343 3.9883-1.2148 4.9297-3.082l32.762 8.0625-0.003906 0.003907c-0.82422 0.94531-1.2812 2.1602-1.2891 3.4141 0 3.0938 2.5078 5.6016 5.6016 5.6016s5.6016-2.5078 5.6016-5.6016c0.03125-0.35547 0.03125-0.71094 0-1.0625l18.312 4.4805-0.003906-0.003907c1.0352 1.3438 2.6211 2.1484 4.3125 2.1875 0.81641-0.015624 1.6211-0.20703 2.3516-0.5625l33.824 8.4023v0.55859c-0.003907 2.6914 1.9023 5.0078 4.5469 5.5117 2.6445 0.50781 5.2734-0.9375 6.2617-3.4414l32.762 8.0625v0.003907c-1.543 1.6172-1.9766 4-1.0977 6.0586 0.875 2.0586 2.8906 3.3945 5.1289 3.4062zm-424.14 25.926 54.824 180.66-54.824 31.754zm60.145 242.87c-1.7656-0.11719-3.4727 0.66016-4.5469 2.0703-1.0703 1.4062-1.3594 3.2617-0.77344 4.9297l-31.809-17.977v0.003906c-0.94531-1.8281-2.8164-2.9883-4.8711-3.0273h-0.33594l-9.2383-5.207c0.72266-0.92969 1.1328-2.0664 1.1758-3.2461v-0.67187l45.137-26.152h-0.003906c0.57422 2.1484 2.3594 3.7539 4.5586 4.0938 2.1953 0.33984 4.3867-0.65234 5.5781-2.5273l6.2148 6.6641h0.003906c-1.6289 0.99219-2.6445 2.7422-2.6914 4.6484 0.054687 2.3711 1.5977 4.4492 3.8477 5.1914 2.25 0.74219 4.7266-0.015625 6.1797-1.8867l6.0469 6.4414v-0.003906c-1.3242 0.93359-2.1836 2.3906-2.3516 4-0.16797 1.6094 0.36719 3.2148 1.4727 4.3984 1.1016 1.1875 2.6641 1.8359 4.2812 1.7812 1.6172-0.050781 3.1328-0.80469 4.1562-2.0586l5.9375 6.3281c-1.5078 1.625-1.9141 3.9805-1.043 6.0156 0.87109 2.0352 2.8594 3.3633 5.0742 3.3945 1.2969-0.027343 2.543-0.50391 3.5273-1.3438l6.0469 6.4961c-0.72266 0.92969-1.1328 2.0664-1.1758 3.2461 0 1.4844 0.58984 2.9102 1.6406 3.9609 1.0508 1.0508 2.4766 1.6406 3.9609 1.6406 1.0586-0.03125 2.0898-0.36328 2.9688-0.95312l6.2148 6.6641c-0.48438 0.81641-0.75391 1.7383-0.78516 2.6875 0 1.4844 0.58984 2.9102 1.6406 3.9609 1.0508 1.0508 2.4766 1.6406 3.9609 1.6406 0.83594-0.007812 1.6562-0.19922 2.4062-0.5625l6.4414 6.832c-0.70703 1.7227-0.51172 3.6875 0.51953 5.2344 1.0352 1.5508 2.7695 2.4844 4.6328 2.4961 0.59375-0.027343 1.1758-0.14062 1.7344-0.33594l6.9453 7.3906c-0.14844 0.43359-0.24219 0.88672-0.28125 1.3438 0 1.4844 0.58984 2.9102 1.6406 3.9609 1.0508 1.0508 2.4766 1.6406 3.9609 1.6406 0.31641 0.027344 0.63672 0.027344 0.95312 0l7.5586 8.0625v0.50391c0 1.4844 0.58984 2.9102 1.6406 3.9609 1.0508 1.0508 2.4727 1.6406 3.9609 1.6406l8.2852 8.6211c0.09375 1.0156 0.46484 1.9805 1.0664 2.8008l-32.145-18.145c-0.46875-2.7148-2.8438-4.6875-5.6016-4.6484-0.6875 0.007812-1.3711 0.14062-2.0156 0.39453l-8.2891-4.6484c1.3008-0.99609 2.0977-2.5117 2.1875-4.1445 0-1.4844-0.58984-2.9102-1.6406-3.9609-1.0508-1.0508-2.4766-1.6406-3.9609-1.6406-2.7383-0.042969-5.1055 1.8984-5.6016 4.5938l-44.797-25.648c0.054688-0.44531 0.054688-0.89844 0-1.3438-0.011718-2.2656-1.3828-4.3008-3.4805-5.1602-2.0938-0.85547-4.5039-0.36719-6.0977 1.2383l-8.5117-4.8164v0.003906c2.3711-0.66797 4.0312-2.8047 4.0898-5.2656 0-1.4844-0.58984-2.9102-1.6406-3.9609-1.0508-1.0508-2.4766-1.6406-3.9609-1.6406z"/>
  <use x="70" y="644" xlink:href="#v"/>
  <use x="90.550781" y="644" xlink:href="#b"/>
  <use x="104.359375" y="644" xlink:href="#a"/>
  <use x="123.347656" y="644" xlink:href="#f"/>
  <use x="142.242188" y="644" xlink:href="#c"/>
  <use x="155.628906" y="644" xlink:href="#a"/>
  <use x="174.617188" y="644" xlink:href="#k"/>
  <use x="204.410156" y="644" xlink:href="#e"/>
  <use x="224.453125" y="644" xlink:href="#j"/>
  <use x="252.453125" y="644" xlink:href="#i"/>
  <use x="270.292969" y="644" xlink:href="#f"/>
  <use x="289.1875" y="644" xlink:href="#b"/>
  <use x="302.996094" y="644" xlink:href="#h"/>
  <use x="329.410156" y="644" xlink:href="#u"/>
  <use x="357.273438" y="644" xlink:href="#a"/>
  <use x="376.265625" y="644" xlink:href="#t"/>
  <use x="385.859375" y="644" xlink:href="#a"/>
  <use x="404.851562" y="644" xlink:href="#b"/>
  <use x="418.660156" y="644" xlink:href="#c"/>
  <use x="432.046875" y="644" xlink:href="#d"/>
  <use x="451.28125" y="644" xlink:href="#e"/>
  <use x="471.324219" y="644" xlink:href="#a"/>
  <use x="490.3125" y="644" xlink:href="#b"/>
  <use x="504.125" y="644" xlink:href="#a"/>
  <use x="523.113281" y="644" xlink:href="#g"/>
  <use x="543.046875" y="644" xlink:href="#h"/>
  <use x="70" y="672" xlink:href="#s"/>
  <use x="82.183594" y="672" xlink:href="#b"/>
  <use x="95.992188" y="672" xlink:href="#d"/>
  <use x="115.226562" y="672" xlink:href="#r"/>
  <use x="154.152344" y="672" xlink:href="#c"/>
  <use x="167.535156" y="672" xlink:href="#q"/>
  <use x="187.46875" y="672" xlink:href="#a"/>
  <use x="216.207031" y="672" xlink:href="#p"/>
  <use x="239.640625" y="672" xlink:href="#d"/>
  <use x="258.878906" y="672" xlink:href="#o"/>
  <use x="278.8125" y="672" xlink:href="#g"/>
  <use x="308.492188" y="672" xlink:href="#n"/>
  <use x="329.015625" y="672" xlink:href="#b"/>
  <use x="342.820312" y="672" xlink:href="#d"/>
  <use x="362.058594" y="672" xlink:href="#m"/>
  <use x="371.65625" y="672" xlink:href="#a"/>
  <use x="390.648438" y="672" xlink:href="#l"/>
  <use x="407.242188" y="672" xlink:href="#c"/>
 </g>
</svg>
